<svg width="64" height="64" viewBox="0 0 64 64" fill="none" xmlns="http://www.w3.org/2000/svg">
<rect width="64" height="64" rx="10" fill="#0F183E"/>
<path fill-rule="evenodd" clip-rule="evenodd" d="M29.5031 5.14228C18.5343 6.40359 9.35635 14.0242 6.17772 24.5099C2.85776 35.4613 6.71113 47.4187 15.7929 54.3472C26.0334 62.1596 40.2708 61.8436 50.1279 53.5849C58.789 46.3282 62.1536 34.5226 58.6055 23.8384C54.8547 12.5446 44.1131 4.87093 32.2373 5.00164C31.3182 5.01171 30.0878 5.07508 29.5031 5.14228ZM37.2228 10.8618C39.3249 11.3414 40.5129 11.7607 42.3316 12.6649C48.4364 15.6999 52.6689 21.1603 54.1927 27.9666C54.4818 29.2577 54.5222 29.8123 54.5218 32.4863C54.5213 35.8138 54.401 36.6739 53.5697 39.2912C51.4598 45.9342 46.1108 51.3418 39.4965 53.5184C37.2095 54.2711 35.9639 54.4762 33.1886 54.5576C30.9305 54.6238 30.3225 54.5929 28.8126 54.3349C21.7596 53.1301 15.8386 48.7327 12.6609 42.3393C11.7654 40.5379 11.3444 39.3516 10.8477 37.2299C10.4797 35.6585 10.4505 35.3163 10.4488 32.5572C10.4473 30.0119 10.4921 29.3744 10.7581 28.1624C11.7617 23.5912 13.6526 20.1055 16.877 16.8824C19.7732 13.9871 22.8643 12.1651 26.6153 11.1419C28.8796 10.5244 30.2034 10.3757 32.976 10.4273C35.1326 10.4675 35.7899 10.5347 37.2228 10.8618ZM28.5817 13.494C19.0341 15.5015 12.3535 24.442 13.1985 34.0809C13.7257 40.0955 16.9215 45.4487 21.9562 48.7505C24.4679 50.3977 27.1556 51.3705 30.4599 51.8285L31.0623 51.912V43.4751V35.0382H28.369H25.6758V39.8674V44.6966L25.1425 44.3969C23.2753 43.3474 21.1185 40.9373 20.0022 38.6533C18.8924 36.3824 18.6575 35.2846 18.6674 32.4154C18.6752 30.2108 18.7088 29.8966 19.0628 28.7295C19.6108 26.9213 20.5557 25.0894 21.6374 23.7372C22.5012 22.6574 24.2122 21.1358 25.2386 20.5342L25.6758 20.2782V25.1063V29.9345H28.369H31.0623V21.5701V13.2058L30.4599 13.2157C30.1286 13.2213 29.2833 13.3464 28.5817 13.494ZM34.0391 32.5589V51.912L34.6415 51.8302C39.2263 51.2082 42.8392 49.5205 45.9836 46.5321C48.8292 43.8275 50.776 40.3724 51.6015 36.5616C51.7655 35.8044 51.8998 35.1519 51.8998 35.1115C51.8998 35.0712 50.6637 35.0382 49.1529 35.0382H46.4059L46.1658 35.9941C45.5694 38.3687 44.1735 40.7648 42.3805 42.4912C41.483 43.3555 39.7436 44.6784 39.5049 44.6784C39.4621 44.6784 39.4106 37.8424 39.3909 29.4872L39.3548 14.2961L38.5751 14.0266C37.4968 13.6541 35.3666 13.2108 34.6415 13.2081L34.0391 13.2058V32.5589Z" fill="white"/>
</svg>
