<svg width="48" height="48" viewBox="0 0 48 48" fill="none" xmlns="http://www.w3.org/2000/svg">
<g id="Frame">
<path id="Vector" d="M5.61154 10.4001L14.0101 15.9992L22.3826 4.27762C23.0246 3.3788 24.2738 3.17062 25.1726 3.81262C25.3522 3.9409 25.5092 4.09802 25.6376 4.27762L34.0102 15.9992L42.4086 10.4001C43.3278 9.78742 44.5694 10.0358 45.1822 10.9548C45.4456 11.3501 45.5598 11.8262 45.5044 12.2979L42.218 40.2328C42.0994 41.24 41.2458 41.9992 40.2316 41.9992H7.7886C6.77444 41.9992 5.9208 41.24 5.8023 40.2328L2.51584 12.2979C2.38678 11.2009 3.17146 10.207 4.26846 10.0779C4.74022 10.0224 5.21632 10.1366 5.61154 10.4001ZM24.0102 29.9992C26.2192 29.9992 28.0102 28.2084 28.0102 25.9992C28.0102 23.79 26.2192 21.9992 24.0102 21.9992C21.801 21.9992 20.0102 23.79 20.0102 25.9992C20.0102 28.2084 21.801 29.9992 24.0102 29.9992Z" fill="white"/>
</g>
</svg>
