<svg width="60" height="60" viewBox="0 0 60 60" fill="none" xmlns="http://www.w3.org/2000/svg">
<path id="image 1 (Traced)" fill-rule="evenodd" clip-rule="evenodd" d="M26.7306 0.155212C14.7647 1.53119 4.75239 9.84461 1.28479 21.2835C-2.33699 33.2306 1.86669 46.2749 11.774 53.8333C22.9455 62.356 38.4772 62.0113 49.2304 53.0017C58.6789 45.0853 62.3494 32.2064 58.4787 20.551C54.387 8.23046 42.6688 -0.1408 29.7134 0.00179385C28.7107 0.0127745 27.3685 0.0819044 26.7306 0.155212ZM35.1522 6.39469C37.4453 6.91789 38.7413 7.37536 40.7253 8.36176C47.3851 11.6727 52.0025 17.6294 53.6648 25.0545C53.9801 26.4629 54.0242 27.068 54.0237 29.9851C54.0233 33.615 53.892 34.5533 52.9852 37.4086C50.6834 44.6555 44.8481 50.5548 37.6326 52.9292C35.1376 53.7503 33.7788 53.9741 30.7512 54.0628C28.2878 54.1351 27.6246 54.1013 25.9774 53.8199C18.2832 52.5056 11.824 47.7085 8.3573 40.7337C7.38046 38.7687 6.92118 37.4745 6.37933 35.1599C5.97789 33.4457 5.94603 33.0724 5.94418 30.0624C5.94248 27.2857 5.99134 26.5902 6.2816 25.2681C7.37643 20.2813 9.43915 16.4788 12.9567 12.9626C16.1163 9.80409 19.4883 7.81644 23.5803 6.70029C26.0505 6.0266 27.4947 5.86437 30.5192 5.92066C32.8719 5.96458 33.589 6.03789 35.1522 6.39469ZM25.7255 9.2662C15.31 11.4561 8.02205 21.2094 8.94384 31.7247C9.51894 38.286 13.0053 44.1258 18.4977 47.7278C21.2377 49.5247 24.1698 50.586 27.7744 51.0857L28.4316 51.1768V41.9729V32.7689H25.4935H22.5554V38.0371V43.3054L21.9736 42.9784C19.9367 41.8335 17.5838 39.2043 16.366 36.7127C15.1553 34.2354 14.8991 33.0377 14.9099 29.9078C14.9184 27.5027 14.9551 27.16 15.3412 25.8867C15.939 23.9142 16.9699 21.9157 18.1499 20.4406C19.0923 19.2626 20.9587 17.6027 22.0785 16.9464L22.5554 16.6671V21.9341V27.2013H25.4935H28.4316V18.0765V8.95178L27.7744 8.96261C27.413 8.96864 26.4909 9.1052 25.7255 9.2662ZM31.679 30.0643V51.1768L32.3362 51.0876C37.3378 50.4089 41.2791 48.5679 44.7094 45.3077C47.8136 42.3573 49.9374 38.588 50.838 34.4309C51.0169 33.6048 51.1634 32.893 51.1634 32.8489C51.1634 32.805 49.8149 32.7689 48.1668 32.7689H45.1701L44.9081 33.8118C44.2576 36.4023 42.7347 39.0161 40.7787 40.8995C39.7997 41.8423 37.9021 43.2856 37.6417 43.2856C37.595 43.2856 37.5389 35.828 37.5174 26.7133L37.4779 10.1412L36.6274 9.84724C35.4511 9.44081 33.1272 8.95719 32.3362 8.95425L31.679 8.95178V30.0643Z" fill="white"/>
</svg>
