<svg width="80" height="60" viewBox="0 0 80 60" fill="none" xmlns="http://www.w3.org/2000/svg">
<g id="Icon">
<mask id="mask0_105_26" style="mask-type:alpha" maskUnits="userSpaceOnUse" x="0" y="0" width="80" height="60">
<rect id="Bounding box" x="80" y="60" width="80" height="60" transform="rotate(-180 80 60)" fill="white"/>
</mask>
<g mask="url(#mask0_105_26)">
<path id="&#226;&#128;&#156;" d="M55.1322 41.5977L55.1391 41.5845L55.1455 41.5712C57.1744 37.3693 58.3485 33.003 58.6614 28.4781L58.7232 27.5849L57.8422 27.4251L46.1282 25.3014L46.1282 0.999997L79 1L79 18.6364C79 29.2408 76.5298 37.6414 71.6871 43.9343C66.8013 50.2387 60.306 55.173 52.1707 58.7268L48.592 52.3409C50.9146 49.0987 53.0942 45.5169 55.1322 41.5977ZM10.004 41.5977L10.0109 41.5845L10.0173 41.5712C12.0462 37.3693 13.2203 33.003 13.5332 28.4781L13.595 27.5849L12.714 27.4251L1 25.3014L1.00001 0.999993L33.8718 0.999996L33.8718 18.6364C33.8718 29.2409 31.4015 37.6416 26.5588 43.9344C21.6729 50.2388 15.1778 55.173 7.0425 58.7268L3.46376 52.3409C5.78637 49.0987 7.96605 45.5169 10.004 41.5977Z" stroke="#2D3866" stroke-width="2"/>
</g>
</g>
</svg>
